<?xml version="1.0" encoding="utf-8"?>
<!-- Generator: Adobe Illustrator 24.1.2, SVG Export Plug-In . SVG Version: 6.00 Build 0)  -->
<svg version="1.1" id="Warstwa_3" xmlns="http://www.w3.org/2000/svg" xmlns:xlink="http://www.w3.org/1999/xlink" x="0px" y="0px"
	 viewBox="0 0 430 430" style="enable-background:new 0 0 430 430;" xml:space="preserve">
<style type="text/css">
	.st0{fill:#08A789;}
	.st1{fill:#121331;}
	.st2{fill:none;stroke:#121331;stroke-width:12;stroke-linecap:round;stroke-linejoin:round;stroke-miterlimit:10;}
	.st3{fill:#08A385;}
</style>
<g>
	<path class="st0" d="M165.27,192.64c-2.92,0-5.47-2.13-5.92-5.1l-13.87-91.26c-1.75-11.49,1.24-22.86,8.43-32.01
		c7.19-9.15,17.53-14.74,29.12-15.76c4.29-0.38,8.6,1.05,11.82,3.93c3.22,2.87,5.12,7,5.23,11.31l2.94,120.87
		c0.08,3.31-2.54,6.06-5.85,6.14c-3.33,0.1-6.06-2.54-6.14-5.85l-2.94-120.87c-0.03-1.39-0.79-2.26-1.23-2.66
		c-0.44-0.4-1.39-1.04-2.78-0.92c-8.25,0.72-15.62,4.71-20.73,11.22c-5.12,6.51-7.25,14.6-6,22.79l13.87,91.26
		c0.5,3.28-1.75,6.34-5.03,6.83C165.88,192.62,165.57,192.64,165.27,192.64z"/>
	<path class="st0" d="M262.34,192.43c-0.3,0-0.6-0.02-0.91-0.07c-3.28-0.5-5.53-3.56-5.03-6.83l14-92.15
		c1.24-8.19-0.89-16.28-6.01-22.79c-5.12-6.51-12.48-10.49-20.72-11.22c-1.39-0.13-2.34,0.53-2.79,0.92
		c-0.44,0.4-1.19,1.27-1.22,2.65l-2.97,121.91c-0.08,3.31-2.84,5.94-6.14,5.85c-3.31-0.08-5.93-2.83-5.85-6.14l2.97-121.9
		c0.1-4.31,2-8.43,5.22-11.31c3.22-2.88,7.54-4.31,11.84-3.94c11.58,1.02,21.92,6.61,29.11,15.75c7.19,9.15,10.19,20.51,8.44,32.01
		l-14,92.15C267.81,190.3,265.25,192.43,262.34,192.43z"/>
	<path class="st1" d="M354.72,214.42c0-11.57-14.35-20.41-43.86-27.01c-25.68-5.75-59.72-8.91-95.86-8.91s-70.19,3.16-95.86,8.91
		c-29.51,6.6-43.86,15.44-43.86,27.01c0,12.23,16.74,21.72,49.77,28.26l-11.02,97.71c0,0.04-0.01,0.07-0.01,0.11l-2,17.7
		c-1.11,9.82,7.09,18.35,19.06,19.84l0.16,0.02c24.06,3,53.02,4.59,83.76,4.59s59.7-1.59,83.77-4.59l0.15-0.02
		c11.98-1.49,20.17-10.02,19.06-19.84l-2-17.7c0-0.04-0.01-0.07-0.01-0.11l-11.02-97.71C337.98,236.15,354.72,226.65,354.72,214.42z
		 M292.38,238.26c0,0.02,0.01,0.04,0.01,0.06l2.44,21.64c-38.98-8.3-120.81-8.3-159.65-0.01l2.44-21.6c0-0.03,0.01-0.06,0.01-0.09
		l0.8-7.08c33.9-9.1,119.06-9.1,153.15,0.01L292.38,238.26z M297.44,366.13l-0.16,0.02c-23.24,2.9-52.46,4.5-82.27,4.5
		s-59.03-1.6-82.27-4.5l-0.18-0.02c-5.52-0.69-8.91-3.96-8.62-6.59l2.01-17.8c0-0.03,0.01-0.07,0.01-0.11l7.79-69.05
		c35.86-9.16,126.43-9.16,162.5,0.01l7.79,69.04c0,0.04,0.01,0.07,0.01,0.11l2.01,17.8C306.35,362.17,302.96,365.45,297.44,366.13z
		 M303.6,230.71l-0.54-4.83c-0.26-2.34-1.87-4.3-4.1-5.03c-35.44-11.55-132.74-11.54-167.92,0c-2.23,0.73-3.83,2.7-4.09,5.03
		l-0.54,4.83c-32.28-6.54-39.12-14.43-39.12-16.29c0-1.97,6.33-9,34.48-15.3c24.84-5.56,57.96-8.62,93.24-8.62s68.4,3.06,93.24,8.62
		c28.14,6.3,34.48,13.33,34.48,15.3C342.72,216.29,335.88,224.18,303.6,230.71z"/>
</g>
</svg>
