<svg width="320" height="100" xmlns="http://www.w3.org/2000/svg">

 <g>
  <title>Layer 1</title>
  <g id="svg_7">
   <g id="svg_4" stroke="null" fill="#000000" stroke-width="0">

    <path d="m250.8176,78.17857c-0.41396,-3.46677 -3.36346,-6.53959 -7.39961,-7.64266c-3.10473,-0.8273 -6.62343,-0.43335 -9.2107,0.86669c0.36222,-6.30322 -1.24189,-13.11858 -4.6571,-19.42181c-4.03615,-7.44568 -10.29736,-13.74891 -17.69696,-17.72782c-9.26245,-4.96379 -20.90519,-7.52447 -32.70316,-7.16992c-5.74375,0.15758 -11.43576,1.06367 -16.86904,2.60008c-0.82793,0.23637 -1.75935,0.55153 -2.74251,0.86669c-3.82917,1.26064 -8.6415,2.87585 -11.59099,1.53641c-1.65586,-0.74851 -3.31171,-1.73339 -4.96757,-2.67887c-0.51746,-0.31516 -1.08666,-0.63032 -1.65586,-0.94548c11.4875,-0.19698 22.87152,-2.32431 33.27236,-6.30322c7.03739,-2.67887 13.14336,-6.06685 17.69696,-8.66693c2.43204,-1.41823 4.29488,-3.90012 2.69077,-6.02746c-1.29364,-1.69399 -4.0879,-2.08794 -5.58852,-2.28492c-14.17827,-1.85157 -25.71752,-1.30004 -36.22186,1.73339c-10.55608,3.07282 -21.52613,8.03661 -31.77174,14.37923c-2.53553,0.0394 -14.48874,0.59093 -21.99184,5.98806c-3.67393,2.67887 -4.96757,4.92439 -6.20946,7.09113c-0.62095,1.10306 -1.29364,2.28492 -2.2768,3.50617c-4.19139,5.20016 -4.0879,9.06088 0.36222,11.50338c4.19139,2.28492 13.09161,3.70314 21.21566,3.50617c0,0 0.05175,0 0.05175,0c5.53677,-0.90609 11.90147,-4.96379 13.66081,-8.66693c0.15524,-0.31516 0.5692,-0.47274 0.98316,-0.35456c0.41396,0.11819 0.62095,0.43335 0.46571,0.74851c-1.7076,3.62435 -7.14088,7.40629 -12.57416,8.9427c0.36222,3.78193 2.06982,12.25189 9.62466,15.63987c6.83041,3.07282 12.36718,4.80621 15.67889,5.86988c1.1384,0.35456 2.01807,0.63032 2.53553,0.8273c0.41396,0.15758 0.82793,0.31516 1.24189,0.51214c0.05175,0 0.10349,0.0394 0.15524,0.0394c3.10473,1.33943 8.27928,2.87585 11.74623,3.78193c0.41396,0.11819 0.62095,0.43335 0.46571,0.74851c-0.10349,0.23637 -0.41396,0.39395 -0.72444,0.39395c-0.10349,0 -0.15524,0 -0.25873,-0.0394c-0.72444,-0.19698 -3.10473,-0.8273 -5.74375,-1.6152c0.62095,0.59093 1.03491,1.14246 1.03491,1.6152c0,2.4425 -1.03491,4.60923 -1.55237,4.96379c-0.31047,0.0394 -1.19015,0.07879 -1.86284,0.07879c-3.46695,0.11819 -8.69325,0.23637 -9.41768,3.07282c-0.82793,3.07282 0.36222,6.10625 0.41396,6.22443l0.25873,0.70911l20.74995,0l0.31047,-0.63032c0.05175,-0.11819 4.91582,-9.61242 7.91706,-15.87624c-1.24189,-1.89097 -2.17331,-3.86072 -2.53553,-4.68802c-2.53553,-6.22443 -0.46571,-14.45802 4.96757,-19.5006c0.25873,-0.23637 0.77618,-0.27577 1.08666,-0.07879c0.31047,0.19698 0.36222,0.59093 0.10349,0.8273c-5.12281,4.80621 -7.08913,12.52766 -4.6571,18.39753c0.62095,1.45762 2.38029,4.92439 4.29488,6.85476c1.81109,1.37883 3.9844,2.67887 6.57168,3.82133c-1.1384,-0.11819 -2.2768,-0.19698 -3.25997,-0.15758c-3.82917,0.15758 -7.14088,1.73339 -8.43452,3.93951c-0.77618,1.33943 -0.67269,3.07282 0.31047,4.45165c0.87967,1.26064 2.32855,2.08794 3.9844,2.32431l0.10349,0l61.78414,0c0.98316,0 1.39713,-0.66972 1.55237,-0.98488l0.20698,-0.07879l0.15524,-0.43335c0.87967,-2.28492 0.10349,-3.93951 -0.72444,-5.51532c-0.20698,-0.43335 -0.41396,-0.8273 -0.5692,-1.26064c3.62219,1.22125 8.02055,1.18185 11.53925,-0.23637c4.34662,-1.69399 7.08913,-5.59411 6.67517,-9.37604l0.00003,0zm-117.97976,-56.21687c-0.15524,0.07879 -0.31047,0.11819 -0.46571,0.11819c-0.25873,0 -0.46571,-0.07879 -0.62095,-0.23637c-0.25873,-0.27577 -0.20698,-0.63032 0.15524,-0.8273c9.15896,-5.16076 20.02551,-8.82451 31.35778,-10.5579l0.77618,-0.11819c4.34662,-0.66972 9.2107,-1.41823 13.60907,-1.10306c2.38029,0.19698 3.72568,0.70911 4.19139,1.6546c0.77618,1.6152 -1.75935,3.66375 -3.82917,5.31834c-0.31047,0.23637 -0.77618,0.23637 -1.08666,0c-0.31047,-0.23637 -0.31047,-0.59093 0,-0.8273c1.50062,-1.18185 3.9844,-3.15161 3.51869,-4.0971c-0.20698,-0.43335 -1.24189,-0.74851 -2.89775,-0.86669c-4.13964,-0.31516 -8.90023,0.43335 -13.14336,1.06367l-0.77618,0.11819c-11.17703,1.73339 -21.83661,5.31834 -30.78858,10.36092l0.00001,0z" fill="#ffffff" originalFill="#000000" id="svg_5" stroke="null"/>
   </g>
      <path fill="#ffffff" stroke="null" stroke-width="0" opacity="NaN" d="m130.82989,34.23219" id="svg_2"/>
  </g>
 </g>
</svg>